<?xml version="1.0" encoding="UTF-8" standalone="no"?>
<!DOCTYPE svg PUBLIC "-//W3C//DTD SVG 1.1//EN"
 "http://www.w3.org/Graphics/SVG/1.1/DTD/svg11.dtd">
<!-- Generated by graphviz version 2.43.0 (0)
 -->
<!-- Title: MovieingTransactionFlow Pages: 1 -->
<svg width="943pt" height="99pt"
 viewBox="0.00 0.00 943.00 98.76" xmlns="http://www.w3.org/2000/svg" xmlns:xlink="http://www.w3.org/1999/xlink">
<g id="graph0" class="graph" transform="scale(1 1) rotate(0) translate(4 94.76)">
<title>MovieingTransactionFlow</title>
<polygon fill="white" stroke="transparent" points="-4,4 -4,-94.76 939,-94.76 939,4 -4,4"/>
<!-- Client -->
<g id="node1" class="node">
<title>Client</title>
<path fill="#e3f2fd" stroke="black" d="M42,-57.76C42,-57.76 12,-57.76 12,-57.76 6,-57.76 0,-51.76 0,-45.76 0,-45.76 0,-33.76 0,-33.76 0,-27.76 6,-21.76 12,-21.76 12,-21.76 42,-21.76 42,-21.76 48,-21.76 54,-27.76 54,-33.76 54,-33.76 54,-45.76 54,-45.76 54,-51.76 48,-57.76 42,-57.76"/>
<text text-anchor="middle" x="27" y="-42.76" font-family="Helvetica,sans-Serif" font-size="10.00">Client</text>
<text text-anchor="middle" x="27" y="-31.76" font-family="Helvetica,sans-Serif" font-size="10.00">(React)</text>
</g>
<!-- API -->
<g id="node2" class="node">
<title>API</title>
<path fill="#e8f5e9" stroke="black" d="M217,-57.76C217,-57.76 161,-57.76 161,-57.76 155,-57.76 149,-51.76 149,-45.76 149,-45.76 149,-33.76 149,-33.76 149,-27.76 155,-21.76 161,-21.76 161,-21.76 217,-21.76 217,-21.76 223,-21.76 229,-27.76 229,-33.76 229,-33.76 229,-45.76 229,-45.76 229,-51.76 223,-57.76 217,-57.76"/>
<text text-anchor="middle" x="189" y="-42.76" font-family="Helvetica,sans-Serif" font-size="10.00">API Server</text>
<text text-anchor="middle" x="189" y="-31.76" font-family="Helvetica,sans-Serif" font-size="10.00">(Spring Boot)</text>
</g>
<!-- Client&#45;&gt;API -->
<g id="edge1" class="edge">
<title>Client&#45;&gt;API</title>
<path fill="none" stroke="black" d="M54.06,-39.76C76.93,-39.76 110.81,-39.76 138.78,-39.76"/>
<polygon fill="black" stroke="black" points="138.78,-43.26 148.78,-39.76 138.78,-36.26 138.78,-43.26"/>
<text text-anchor="middle" x="101.5" y="-43.56" font-family="Times,serif" font-size="14.00">예매 요청</text>
</g>
<!-- Booking -->
<g id="node3" class="node">
<title>Booking</title>
<path fill="#fffde7" stroke="black" d="M381,-57.76C381,-57.76 336,-57.76 336,-57.76 330,-57.76 324,-51.76 324,-45.76 324,-45.76 324,-33.76 324,-33.76 324,-27.76 330,-21.76 336,-21.76 336,-21.76 381,-21.76 381,-21.76 387,-21.76 393,-27.76 393,-33.76 393,-33.76 393,-45.76 393,-45.76 393,-51.76 387,-57.76 381,-57.76"/>
<text text-anchor="middle" x="358.5" y="-42.76" font-family="Helvetica,sans-Serif" font-size="10.00">BOOKING</text>
<text text-anchor="middle" x="358.5" y="-31.76" font-family="Helvetica,sans-Serif" font-size="10.00">(PENDING)</text>
</g>
<!-- API&#45;&gt;Booking -->
<g id="edge2" class="edge">
<title>API&#45;&gt;Booking</title>
<path fill="none" stroke="black" d="M229.27,-39.76C254.62,-39.76 287.64,-39.76 313.82,-39.76"/>
<polygon fill="black" stroke="black" points="313.85,-43.26 323.85,-39.76 313.85,-36.26 313.85,-43.26"/>
<text text-anchor="middle" x="276.5" y="-43.56" font-family="Times,serif" font-size="14.00">예매 생성</text>
</g>
<!-- Seat -->
<g id="node4" class="node">
<title>Seat</title>
<path fill="#fffde7" stroke="black" d="M606,-90.76C606,-90.76 538,-90.76 538,-90.76 532,-90.76 526,-84.76 526,-78.76 526,-78.76 526,-66.76 526,-66.76 526,-60.76 532,-54.76 538,-54.76 538,-54.76 606,-54.76 606,-54.76 612,-54.76 618,-60.76 618,-66.76 618,-66.76 618,-78.76 618,-78.76 618,-84.76 612,-90.76 606,-90.76"/>
<text text-anchor="middle" x="572" y="-75.76" font-family="Helvetica,sans-Serif" font-size="10.00">BOOKING_SEAT</text>
<text text-anchor="middle" x="572" y="-64.76" font-family="Helvetica,sans-Serif" font-size="10.00">(HELD)</text>
</g>
<!-- Booking&#45;&gt;Seat -->
<g id="edge3" class="edge">
<title>Booking&#45;&gt;Seat</title>
<path fill="none" stroke="black" d="M393.05,-51.21C398.98,-52.94 405.13,-54.54 411,-55.76 445.41,-62.86 484.63,-67.08 515.63,-69.55"/>
<polygon fill="black" stroke="black" points="515.57,-73.05 525.81,-70.32 516.1,-66.07 515.57,-73.05"/>
<text text-anchor="middle" x="456.5" y="-71.56" font-family="Times,serif" font-size="14.00">좌석 점유</text>
</g>
<!-- Booking&#45;&gt;Seat -->
<g id="edge8" class="edge">
<title>Booking&#45;&gt;Seat</title>
<path fill="none" stroke="black" d="M393.15,-34.2C422.37,-30.52 465.59,-27.83 502,-36.76 513.15,-39.49 524.5,-44.38 534.69,-49.68"/>
<polygon fill="black" stroke="black" points="533.24,-52.88 543.69,-54.63 536.61,-46.74 533.24,-52.88"/>
<text text-anchor="middle" x="456.5" y="-40.56" font-family="Times,serif" font-size="14.00">좌석 확정/해제</text>
</g>
<!-- Payment -->
<g id="node5" class="node">
<title>Payment</title>
<path fill="#fffde7" stroke="black" d="M769,-40.76C769,-40.76 731,-40.76 731,-40.76 725,-40.76 719,-34.76 719,-28.76 719,-28.76 719,-16.76 719,-16.76 719,-10.76 725,-4.76 731,-4.76 731,-4.76 769,-4.76 769,-4.76 775,-4.76 781,-10.76 781,-16.76 781,-16.76 781,-28.76 781,-28.76 781,-34.76 775,-40.76 769,-40.76"/>
<text text-anchor="middle" x="750" y="-25.76" font-family="Helvetica,sans-Serif" font-size="10.00">PAYMENT</text>
<text text-anchor="middle" x="750" y="-14.76" font-family="Helvetica,sans-Serif" font-size="10.00">(READY)</text>
</g>
<!-- Seat&#45;&gt;Payment -->
<g id="edge4" class="edge">
<title>Seat&#45;&gt;Payment</title>
<path fill="none" stroke="black" d="M618.32,-59.88C646.32,-51.93 681.92,-41.81 708.89,-34.15"/>
<polygon fill="black" stroke="black" points="710.11,-37.44 718.77,-31.34 708.2,-30.71 710.11,-37.44"/>
<text text-anchor="middle" x="671.5" y="-55.56" font-family="Times,serif" font-size="14.00">결제 요청</text>
</g>
<!-- Payment&#45;&gt;Booking -->
<g id="edge7" class="edge">
<title>Payment&#45;&gt;Booking</title>
<path fill="none" stroke="black" d="M718.84,-19.64C659.37,-14.24 523.04,-5.55 411,-25.76 408.36,-26.23 405.65,-26.78 402.93,-27.38"/>
<polygon fill="black" stroke="black" points="402.02,-24 393.11,-29.72 403.64,-30.81 402.02,-24"/>
<text text-anchor="middle" x="572" y="-32.56" font-family="Times,serif" font-size="14.00">상태 변경</text>
<text text-anchor="middle" x="572" y="-17.56" font-family="Times,serif" font-size="14.00">(PAID/FAILED)</text>
</g>
<!-- DB -->
<g id="node6" class="node">
<title>DB</title>
<path fill="#eceff1" stroke="black" d="M923,-40.76C923,-40.76 888,-40.76 888,-40.76 882,-40.76 876,-34.76 876,-28.76 876,-28.76 876,-16.76 876,-16.76 876,-10.76 882,-4.76 888,-4.76 888,-4.76 923,-4.76 923,-4.76 929,-4.76 935,-10.76 935,-16.76 935,-16.76 935,-28.76 935,-28.76 935,-34.76 929,-40.76 923,-40.76"/>
<text text-anchor="middle" x="905.5" y="-20.26" font-family="Helvetica,sans-Serif" font-size="10.00">MariaDB</text>
</g>
<!-- Payment&#45;&gt;DB -->
<g id="edge5" class="edge">
<title>Payment&#45;&gt;DB</title>
<path fill="none" stroke="black" d="M781.33,-22.76C805.44,-22.76 839.34,-22.76 865.48,-22.76"/>
<polygon fill="black" stroke="black" points="865.79,-26.26 875.79,-22.76 865.79,-19.26 865.79,-26.26"/>
<text text-anchor="middle" x="828.5" y="-26.56" font-family="Times,serif" font-size="14.00">결제 저장</text>
</g>
<!-- DB&#45;&gt;Payment -->
<g id="edge6" class="edge">
<title>DB&#45;&gt;Payment</title>
<path fill="none" stroke="black" d="M875.76,-9.01C870,-6.83 863.9,-4.91 858,-3.76 832.27,1.3 824.76,1.16 799,-3.76 796.33,-4.26 793.61,-4.92 790.91,-5.68"/>
<polygon fill="black" stroke="black" points="789.65,-2.41 781.21,-8.82 791.8,-9.07 789.65,-2.41"/>
<text text-anchor="middle" x="828.5" y="-7.56" font-family="Times,serif" font-size="14.00">결제 결과</text>
</g>
</g>
</svg>
